<svg xmlns="http://www.w3.org/2000/svg" viewBox="0 0 128 128" role="img" aria-labelledby="title desc">
  <title id="title">LLMOps Workbench mark</title>
  <desc id="desc">Minimal transparent LLMOps mark with an LLM response card and deployment check.</desc>
  <defs>
    <linearGradient id="frame" x1="20" x2="108" y1="64" y2="64" gradientUnits="userSpaceOnUse">
      <stop offset="0" stop-color="#13b8d7"/>
      <stop offset="1" stop-color="#39b86d"/>
    </linearGradient>
  </defs>

  <g fill="none" stroke-linecap="round" stroke-linejoin="round">
    <rect x="20" y="20" width="88" height="88" rx="23" stroke="url(#frame)" stroke-width="7"/>
    <path d="M43 40h38a9 9 0 0 1 9 9v24a9 9 0 0 1-9 9H62l-14 11V82h-5a9 9 0 0 1-9-9V49a9 9 0 0 1 9-9Z" stroke="#18201b" stroke-width="6"/>
    <path d="M46 49h22M46 60h30M46 71h16" stroke="#13b8d7" stroke-width="5.5"/>
    <circle cx="96" cy="32" r="16" fill="#fdfefb" stroke="#39b86d" stroke-width="6"/>
    <path d="m88 32 5.5 5.5L104 24" stroke="#39b86d" stroke-width="5.5"/>
  </g>
</svg>
